<?xml version="1.0" encoding="UTF-8"?>
<svg version="1.1" xmlns="http://www.w3.org/2000/svg" width="1024" height="1024">
<path d="M0 0 C337.92 0 675.84 0 1024 0 C1024 337.92 1024 675.84 1024 1024 C686.08 1024 348.16 1024 0 1024 C0 686.08 0 348.16 0 0 Z " fill="#F5F5F5" transform="translate(0,0)"/>
<path d="M0 0 C8.46454962 7.71998275 14.93393762 19.64531738 18.875 30.2890625 C19.13176514 30.96904297 19.38853027 31.64902344 19.65307617 32.34960938 C25.55455697 49.57764388 23.70710877 70.9812245 15.875 87.2890625 C15.4413916 88.22443848 15.4413916 88.22443848 14.99902344 89.17871094 C10.27635989 99.09996537 3.55349861 106.58594674 -4.125 114.2890625 C-5.57188398 115.76145407 -7.01848286 117.23412583 -8.46484375 118.70703125 C-19.94769048 130.33043897 -19.94769048 130.33043897 -24.1953125 133.7890625 C-26.47969805 135.73840484 -28.20555873 137.4783796 -30.11331177 139.7454071 C-34.88846697 145.25612347 -40.07206913 150.35222377 -45.24169922 155.48754883 C-46.35150002 156.59378635 -47.4610616 157.70026391 -48.57040405 158.80696106 C-50.94633474 161.17637808 -53.32376643 163.54427474 -55.70235825 165.91102028 C-59.47236661 169.66260707 -63.23791422 173.41865014 -67.00271606 177.17546082 C-77.70458001 187.8532714 -88.41234396 198.52515371 -99.12451172 209.19262695 C-105.05111704 215.09458305 -110.97404243 221.00020803 -116.893139 226.90969485 C-120.62557004 230.63563106 -124.36243594 234.35704037 -128.10278678 238.0750252 C-130.44020031 240.40060376 -132.77331983 242.73045483 -135.10531998 245.06146049 C-136.17696089 246.13097685 -137.25029499 247.19880015 -138.32556152 248.26467133 C-161.08104266 270.82919339 -168.67883628 289.04976998 -168.875 320.6640625 C-168.90320864 322.96095952 -168.93314275 325.25783603 -168.96484375 327.5546875 C-169.0381221 333.13273202 -169.09010421 338.71065262 -169.125 344.2890625 C-163.63586041 344.00097546 -161.02092562 340.73763904 -157.38272095 337.03453064 C-156.71776875 336.37370171 -156.05281655 335.71287277 -155.36771429 335.03201872 C-153.13737643 332.81062538 -150.92165054 330.57520618 -148.70556641 328.33959961 C-147.11114717 326.74568906 -145.51585474 325.15265156 -143.91975403 323.5604248 C-139.58209886 319.22819939 -135.25699195 314.88363859 -130.93410921 310.53667903 C-126.40786775 305.98916323 -121.87070275 301.45257195 -117.33480835 296.91468811 C-109.71362583 289.28705214 -102.09983245 281.6521239 -94.49121094 274.01196289 C-86.67325238 266.16162379 -78.84976846 258.31685222 -71.01953125 250.47875977 C-70.53792241 249.99666544 -70.05631357 249.51457111 -69.56011052 249.01786786 C-67.62388726 247.07971559 -65.68765556 245.14157177 -63.75140528 243.2034465 C-55.82718105 235.27121461 -47.90758828 227.33435948 -39.9885478 219.39695287 C-38.18736439 217.59172515 -36.38602878 215.78664927 -34.5845418 213.9817245 C-29.44303063 208.83039279 -24.30390263 203.67670881 -19.16872215 198.51906586 C-17.61477002 196.95901797 -16.06000059 195.39978367 -14.50433922 193.8414402 C-12.37432624 191.70741167 -10.24740895 189.57034366 -8.12124634 187.43247986 C-7.51082225 186.82224014 -6.90039817 186.21200042 -6.27147639 185.58326858 C-2.58074054 181.86409965 0.91903752 178.02278333 4.33603442 174.05037791 C16.42629941 160.21331083 34.70573291 149.42619691 53.3918457 148.11206055 C76.33249156 147.58335775 96.91454531 150.67702635 114.4375 166.7265625 C116.30954952 168.53558636 118.08847218 170.391385 119.875 172.2890625 C120.97908203 173.45695312 120.97908203 173.45695312 122.10546875 174.6484375 C132.51912604 186.65334997 139.00794325 202.44557092 139.875 218.2890625 C139.95427734 219.62517578 139.95427734 219.62517578 140.03515625 220.98828125 C140.71179285 243.02309906 132.05020488 261.93431853 117.30059814 277.78079224 C112.87522002 282.46280326 108.32576127 287.02421717 103.77026367 291.57910156 C101.91101257 293.44058169 100.05996161 295.30998404 98.20898438 297.1796875 C97.02652918 298.36506984 95.84360438 299.54998397 94.66015625 300.734375 C94.10812027 301.2935965 93.55608429 301.85281799 92.98731995 302.4289856 C89.10387807 306.2890625 89.10387807 306.2890625 86.875 306.2890625 C86.875 306.9490625 86.875 307.6090625 86.875 308.2890625 C85.6171875 309.48828125 85.6171875 309.48828125 83.75 310.9765625 C79.9142105 314.22909747 76.51942924 317.77549422 73.13989258 321.48730469 C63.5006762 331.92942103 53.37093697 341.88996094 43.29831505 351.91034698 C39.6914814 355.49858145 36.08926419 359.09142784 32.48774719 362.68499756 C22.25795526 372.89086083 12.02207711 383.09060732 1.78198242 393.28613281 C-3.90039674 398.94386043 -9.57909211 404.60526039 -15.25396317 410.27051902 C-18.82331673 413.83339046 -22.39709336 417.39174211 -25.97439444 420.94663286 C-28.20582713 423.1662269 -30.43296166 425.39009658 -32.65897942 427.61511993 C-33.68063626 428.63465398 -34.703984 429.65249733 -35.72927094 430.66838074 C-53.18412092 447.96947302 -68.14513361 466.85349897 -68.50537109 492.36108398 C-68.6401056 506.78878407 -68.6401056 506.78878407 -64.125 520.2890625 C-63.70089844 521.16175781 -63.27679687 522.03445313 -62.83984375 522.93359375 C-57.77696408 532.34011392 -50.29736036 538.94964612 -40.125 542.2890625 C-36.92796285 542.78240157 -33.79323702 542.83976218 -30.5625 542.8515625 C-7.19614377 543.53931876 12.01793334 550.37467176 28.5234375 567.53515625 C42.86877674 584.33493061 45.89344419 602.96235609 44.875 624.2890625 C43.40919813 637.61320148 35.78651818 651.44678575 26.875 661.2890625 C26.00488281 662.29646484 26.00488281 662.29646484 25.1171875 663.32421875 C14.90452754 674.41286 -1.04943596 682.42914619 -16.23730469 683.42797852 C-35.87476 684.22690338 -53.17845443 681.25502619 -68.5 667.8515625 C-70.06251349 666.35215537 -71.6058617 664.83239946 -73.125 663.2890625 C-73.76050781 662.65226563 -74.39601563 662.01546875 -75.05078125 661.359375 C-87.68667608 647.85493751 -92.2937589 631.7519322 -92.375 613.7265625 C-92.4059375 612.05110352 -92.4059375 612.05110352 -92.4375 610.34179688 C-92.49548758 597.83822559 -89.59114251 588.35481189 -83.453125 577.61328125 C-81.84877352 573.59768388 -82.00431233 571.43413873 -83.125 567.2890625 C-84.40854479 565.26125911 -84.40854479 565.26125911 -86.1875 563.6640625 C-101.93284442 546.948779 -107.80084862 525.42685775 -107.62109375 503.12890625 C-107.62124935 501.52478469 -107.62274829 499.92066278 -107.62550354 498.31654358 C-107.62687553 494.98095752 -107.61453253 491.64580771 -107.59155273 488.31030273 C-107.56314845 484.07562088 -107.56592802 479.84166046 -107.57864285 475.60692501 C-107.58566001 472.30280091 -107.57774301 468.99883805 -107.56538582 465.69473457 C-107.5609313 464.13493026 -107.56048073 462.57510827 -107.56445122 461.01530266 C-107.60205437 433.26386848 -97.05759083 411.12617343 -77.54467773 391.49755859 C-74.97451622 388.92720303 -72.39209286 386.36943818 -69.80859375 383.8125 C-68.42380643 382.43399907 -67.03954365 381.05497103 -65.65577698 379.67544556 C-62.03454863 376.06742842 -58.40777606 372.46504236 -54.77929688 368.86431885 C-48.96890723 363.09728316 -43.16536319 357.32337917 -37.36509895 351.54616165 C-35.35189296 349.54308142 -33.33525875 347.54350278 -31.31822205 345.54428101 C-25.92892139 340.19015238 -20.60714835 334.86081137 -15.68562317 329.06686401 C-12.65979808 325.61996118 -9.32866148 322.47349991 -6.0390625 319.28125 C-4.51634062 317.78575315 -2.9942224 316.28964146 -1.47265625 314.79296875 C0.89832222 312.46539492 3.27281774 310.14192962 5.65771484 307.82861328 C7.97861714 305.57422609 10.2833449 303.30431532 12.5859375 301.03125 C13.30252533 300.34360565 14.01911316 299.6559613 14.75741577 298.94747925 C17.6991802 296.0218326 19.62883958 293.99837078 21.00390625 290.03613281 C20.85142491 286.78666297 20.35737852 285.88685224 18.1015625 283.59375 C17.45219727 282.91666992 16.80283203 282.23958984 16.13378906 281.54199219 C15.38838867 280.79852539 14.64298828 280.05505859 13.875 279.2890625 C13.05999023 278.43989258 12.24498047 277.59072266 11.40527344 276.71582031 C8.71298874 273.92163839 5.98601008 271.16540036 3.25 268.4140625 C2.31247115 267.45575739 1.37497099 266.49742421 0.4375 265.5390625 C-0.91214844 264.18167969 -0.91214844 264.18167969 -2.2890625 262.796875 C-3.09811035 261.97848145 -3.9071582 261.16008789 -4.74072266 260.31689453 C-8.22711609 257.35171085 -10.87592209 256.31263001 -15.4375 256.2265625 C-24.08055124 258.7169332 -30.33661488 267.41889783 -36.49414062 273.69384766 C-39.53002019 276.77380678 -42.60026184 279.74272288 -45.88694763 282.55519104 C-49.99548389 286.1308512 -53.8708793 289.89361592 -57.71508789 293.74975586 C-58.42677628 294.45969193 -59.13846466 295.16962799 -59.87171936 295.90107727 C-62.19953554 298.22452918 -64.52371797 300.55157613 -66.84765625 302.87890625 C-68.47840537 304.50898077 -70.10930283 306.13890691 -71.74034119 307.76869202 C-75.14858984 311.17547105 -78.55503533 314.58404008 -81.96020508 317.99389648 C-86.30982223 322.34921044 -90.66391383 326.70001911 -95.01937199 331.04949093 C-98.38504951 334.41154299 -101.74832691 337.77598795 -105.11089897 341.14114571 C-106.71482532 342.74573583 -108.31948569 344.34959261 -109.92491341 345.95268059 C-112.17381632 348.19902427 -114.41945561 350.44858266 -116.66430664 352.69897461 C-117.64563568 353.6772673 -117.64563568 353.6772673 -118.64678955 354.67532349 C-122.456886 358.50272886 -126.07826048 362.44276266 -129.59516239 366.54168606 C-131.70970245 368.95690808 -133.98430937 371.17413766 -136.3046875 373.390625 C-151.86918172 388.45487548 -167.81194845 404.52639762 -168.27217102 427.70881653 C-168.28721586 429.5035147 -168.29677474 431.29826396 -168.30200195 433.09301758 C-168.30857315 434.07576157 -168.31514435 435.05850555 -168.32191467 436.07102966 C-168.341594 439.31688519 -168.35329722 442.56269461 -168.36328125 445.80859375 C-168.36735678 446.91934454 -168.3714323 448.03009533 -168.37563133 449.17450523 C-168.39646735 455.05163765 -168.41078079 460.92874687 -168.42016602 466.8059082 C-168.43123626 472.86864633 -168.46565073 478.93101805 -168.50533772 484.99362659 C-168.53150339 489.66314874 -168.53985774 494.33258346 -168.54344749 499.00217247 C-168.54831208 501.23682828 -168.55992237 503.47148022 -168.57848549 505.70606422 C-168.60287933 508.83664542 -168.60191135 511.96627633 -168.5949707 515.09692383 C-168.60778076 516.01408173 -168.62059082 516.93123962 -168.63378906 517.87619019 C-168.57543136 525.12079733 -166.67744384 530.26881682 -161.99365234 535.81103516 C-161.24035645 536.5179248 -160.48706055 537.22481445 -159.7109375 537.953125 C-158.87199951 538.7579834 -158.03306152 539.5628418 -157.16870117 540.39208984 C-156.28802979 541.22434082 -155.4073584 542.0565918 -154.5 542.9140625 C-135.57967624 561.34525722 -122.31064476 582.66099578 -121.83203125 609.89282227 C-121.74247322 624.89267283 -123.28207637 636.95602205 -129.8125 650.6015625 C-130.10253906 651.21136963 -130.39257812 651.82117676 -130.69140625 652.44946289 C-137.0632854 664.77029429 -147.96908982 674.4491435 -157.68334961 684.1081543 C-159.95730736 686.37127547 -162.22023078 688.64504514 -164.48242188 690.91992188 C-165.93164987 692.36783016 -167.38149713 693.81511896 -168.83203125 695.26171875 C-169.84146538 696.27722557 -169.84146538 696.27722557 -170.87129211 697.31324768 C-171.50262558 697.93827682 -172.13395905 698.56330597 -172.78442383 699.20727539 C-173.33463699 699.75589737 -173.88485016 700.30451935 -174.45173645 700.86976624 C-178.54715423 704.34358311 -181.76332575 704.70687495 -187.125 704.2890625 C-189.80749989 702.72023201 -189.80749989 702.72023201 -192.33833313 700.50003052 C-193.7586682 699.25901266 -193.7586682 699.25901266 -195.20769691 697.99292374 C-200.15513273 693.4074626 -204.96387509 688.70321955 -209.71166992 683.91357422 C-210.82301031 682.80002619 -211.93480485 681.68693125 -213.04701233 680.57424927 C-215.4195681 678.19878569 -217.78896349 675.82023213 -220.15584373 673.43911362 C-223.90491661 669.66756092 -227.66126121 665.90330512 -231.41853333 662.1399231 C-237.3623461 656.18477869 -243.30145992 650.22497374 -249.2384904 644.26306832 C-259.87009481 633.58699494 -270.50737178 622.91658081 -281.14990884 612.25140584 C-284.87768768 608.51526473 -288.60263977 604.77633529 -292.32527387 601.03506827 C-294.64583025 598.70380906 -296.96846549 596.37462902 -299.29160118 594.0459404 C-300.36150751 592.97258782 -301.43054253 591.89836585 -302.49860001 590.82317352 C-307.59812572 585.69035575 -312.73151326 580.66479473 -318.22820568 575.95456123 C-321.75851574 572.85473809 -325.05886789 569.51978351 -328.38598633 566.20507812 C-329.16927811 565.42835754 -329.95256989 564.65163696 -330.75959778 563.85137939 C-333.32829862 561.30224613 -335.89309685 558.74923938 -338.45703125 556.1953125 C-339.34063513 555.31578415 -340.22423901 554.4362558 -341.13461876 553.53007507 C-345.33214132 549.35120994 -349.52762099 545.17031093 -353.72000962 540.98629618 C-358.51664768 536.19940426 -363.32143348 531.42089264 -368.13339788 526.64940882 C-372.33567908 522.48123906 -376.52665588 518.30182004 -380.71393394 514.11857605 C-382.47934788 512.35799205 -384.24810059 510.60074865 -386.0204258 508.84712219 C-405.36906394 489.68998682 -419.65622641 471.08431394 -426.125 444.2890625 C-426.49431641 442.78666016 -426.49431641 442.78666016 -426.87109375 441.25390625 C-431.83894494 416.89430491 -426.61853298 390.43091763 -413.6875 369.3515625 C-406.02908741 358.27787336 -397.04298135 348.93707733 -387.51953125 339.48828125 C-386.10760746 338.08009702 -384.69613154 336.6714636 -383.28507996 335.2624054 C-379.59419807 331.57910435 -375.89735292 327.90184726 -372.19915771 324.22589111 C-368.43707793 320.48431977 -364.68068859 316.73704506 -360.92382812 312.99023438 C-354.85961093 306.94352685 -348.79200088 300.90025009 -342.71975708 294.86160278 C-341.67177297 293.81929291 -340.62425095 292.77651814 -339.57728004 291.73319054 C-338.1781039 290.34186832 -336.77266463 288.95685328 -335.36698914 287.57209778 C-333.03633208 285.28632418 -333.03633208 285.28632418 -330.9375 282.4765625 C-330.339375 281.7546875 -329.74125 281.0328125 -329.125 280.2890625 C-328.465 280.2890625 -327.805 280.2890625 -327.125 280.2890625 C-327.125 279.6290625 -327.125 278.9690625 -327.125 278.2890625 C-325.49844203 276.56041813 -323.84029742 274.92652217 -322.125 273.2890625 C-320.94339086 272.11618379 -319.76448356 270.94057955 -318.58766174 269.76289749 C-317.19853119 268.37894518 -315.80936343 266.99503021 -314.42016602 265.61114502 C-312.82266871 264.01951478 -311.22518616 262.42786972 -309.62771606 260.83621216 C-308.3515914 259.5647402 -308.3515914 259.5647402 -307.04968643 258.26758194 C-288.061079 239.34753787 -269.08267936 220.41728808 -250.11147279 201.4797966 C-247.30779021 198.68111579 -244.5040199 195.88252291 -241.70019531 193.08398438 C-240.86305054 192.24841346 -240.86305054 192.24841346 -240.00899374 191.39596233 C-230.96511373 182.36950108 -221.91419185 173.35013244 -212.86066973 164.33334342 C-203.55645008 155.06655828 -194.25986389 145.79216629 -184.97028637 136.51070285 C-179.24526272 130.79115795 -173.51440971 125.07758673 -167.77587199 119.37160036 C-163.37636636 114.9957809 -158.98752781 110.60940386 -154.60254288 106.2190361 C-152.80531077 104.42290337 -151.00465445 102.63018931 -149.20031357 100.84119797 C-146.73410962 98.394948 -144.28061837 95.93659882 -141.82983398 93.47491455 C-141.11631051 92.77304244 -140.40278704 92.07117033 -139.66764164 91.34802938 C-131.71402055 83.29868608 -128.03129632 75.94559196 -127.984375 64.58203125 C-127.66777669 38.35145517 -123.09738935 18.96748064 -104.5 -0.7734375 C-74.27196507 -30.17956211 -30.50360509 -24.55988792 0 0 Z " fill="#112434" transform="translate(656.125,163.7109375)"/>
<path d="M0 0 C2.1696167 0.36486816 2.1696167 0.36486816 4 1 C4.00586624 2.05885406 4.01173248 3.11770813 4.01777649 4.20864868 C4.07526188 14.24084293 4.14815574 24.27282576 4.23571491 34.30480385 C4.28023439 39.46099883 4.31952997 44.61711814 4.34643555 49.7734375 C4.37265374 54.75974566 4.4131837 59.74575967 4.46318626 64.731884 C4.47973081 66.62379644 4.49132165 68.51575961 4.49761391 70.40773392 C4.59873005 98.04464585 12.13102059 116.48806943 31.75883484 136.00315857 C34.1884949 138.40296647 36.62487233 140.79578779 39.0625 143.1875 C41.50701682 145.5967117 43.94926529 148.00816162 46.38877869 150.42243958 C47.89701046 151.91396723 49.408329 153.40238288 50.9233551 154.88700867 C54.14213038 158.06054935 57.26468363 161.25115982 60.19921875 164.69042969 C65.50122465 170.84343789 71.3446618 176.48827332 77.08984375 182.22265625 C78.36119407 183.49468167 79.63239604 184.76685539 80.90345764 186.03916931 C83.55698335 188.69416228 86.21229094 191.34735643 88.86889648 193.99926758 C92.25566535 197.38033978 95.63792393 200.76588258 99.01885128 204.15279484 C101.63973018 206.77730568 104.26300892 209.39940744 106.88699532 212.02081108 C108.13432544 213.26747921 109.38092731 214.51487648 110.62675285 215.76304817 C119.29919583 224.46194207 119.29919583 224.46194207 128.43447876 232.668396 C140.39062628 242.83807847 153.56522438 256.33775687 155.40234375 272.55078125 C155.67395475 282.66557472 154.37869645 289.53495352 147.8125 297.3125 C141.61599627 303.80119659 135.69310005 306.55348235 126.8125 307.25 C113.72018317 306.39148742 104.76456666 299.23931421 95.83740234 290.19384766 C95.07680008 289.43528976 94.31619781 288.67673187 93.532547 287.89518738 C91.04303538 285.40866134 88.56438151 282.91161629 86.0859375 280.4140625 C84.34495594 278.67001885 82.60337907 276.92656928 80.86123657 275.1836853 C77.22060362 271.53846291 73.58491806 267.88840448 69.953125 264.234375 C65.31212627 259.56509549 60.66249732 254.90453366 56.00957298 250.24714088 C51.5527008 245.78509734 47.10051898 241.31838508 42.6484375 236.8515625 C41.80596844 236.00721272 40.96349937 235.16286293 40.09550095 234.29292679 C37.69566841 231.88617073 35.29923769 229.47607928 32.90380859 227.06494141 C32.20440659 226.36442154 31.50500458 225.66390167 30.78440857 224.94215393 C27.56932746 221.69931292 24.45296692 218.41692544 21.46755981 214.96061707 C18.02389215 210.97528898 14.36680368 207.2594201 10.61523438 203.56518555 C9.91344559 202.8696759 9.2116568 202.17416626 8.48860168 201.45758057 C6.97829327 199.96102428 5.46690974 198.46555232 3.95454407 196.97107506 C1.5541811 194.59759297 -0.8415764 192.2195534 -3.23596191 189.84004211 C-10.03929548 183.07921719 -16.84521836 176.3210763 -23.66748047 169.5793457 C-27.85345349 165.44212395 -32.02940107 161.29500574 -36.19914246 157.14142799 C-37.78058107 155.56982847 -39.36565338 154.00187597 -40.95454407 152.4378109 C-56.64949695 136.98272886 -68.75226524 121.35269207 -69.23242188 98.39160156 C-69.40782178 74.52747034 -59.38168504 58.71803331 -43.0390625 41.94921875 C-42.00688143 40.90199414 -40.97304542 39.85639791 -39.9375 38.8125 C-39.46739502 38.3376416 -38.99729004 37.8627832 -38.51293945 37.37353516 C-35.9162057 34.78882951 -33.2521603 32.34930939 -30.45703125 29.98046875 C-26.66580063 26.69833981 -23.16794161 23.18271576 -19.671875 19.59375 C-19.111017 19.02029343 -18.550159 18.44683685 -17.9723053 17.85600281 C-15.63107572 15.46047026 -13.29164985 13.0636488 -10.97070312 10.6484375 C-9.25735332 8.86882555 -7.52878752 7.10527596 -5.796875 5.34375 C-5.27389832 4.79182983 -4.75092163 4.23990967 -4.21209717 3.67126465 C-2.71386719 2.16210938 -2.71386719 2.16210938 0 0 Z " fill="#F5F5F5" transform="translate(338,491)"/>
<path d="M0 0 C3.44978565 0.94717037 5.07229985 2.11417753 7.7265625 4.4765625 C12.4030884 8.42815581 17.28570016 11.44328826 22.6328125 14.40625 C25.1015625 15.8515625 25.1015625 15.8515625 27.1015625 17.8515625 C27.1015625 20.6640625 27.1015625 20.6640625 26.1015625 23.8515625 C23.3515625 26.3515625 23.3515625 26.3515625 21.71484375 27.5703125 C19.10954416 29.63941242 17.19227083 32.27838302 15.1015625 34.8515625 C13.4457555 36.52901853 11.7779408 38.19466439 10.1015625 39.8515625 C8.50287668 41.47164092 6.90524206 43.09275725 5.30859375 44.71484375 C3.51055059 46.53138257 1.7123697 48.34778507 -0.0859375 50.1640625 C-1.00052734 51.09541016 -1.91511719 52.02675781 -2.85742188 52.98632812 C-3.73076172 53.86611328 -4.60410156 54.74589844 -5.50390625 55.65234375 C-6.69729614 56.86144409 -6.69729614 56.86144409 -7.91479492 58.0949707 C-9.8984375 59.8515625 -9.8984375 59.8515625 -11.8984375 59.8515625 C-11.8984375 60.5115625 -11.8984375 61.1715625 -11.8984375 61.8515625 C-13.12329102 63.06011963 -13.12329102 63.06011963 -14.96484375 64.55566406 C-21.95556558 70.50787584 -28.33915421 77.10667518 -34.8359375 83.5859375 C-35.54676483 84.29393745 -36.25759216 85.00193741 -36.98995972 85.73139191 C-40.74959183 89.47610277 -44.5063913 93.22362738 -48.26074219 96.97363281 C-52.11357642 100.82098359 -55.97560358 104.65896454 -59.83988953 108.4948082 C-62.83403768 111.47022756 -65.8213548 114.45243612 -68.80691528 117.43647003 C-70.22681488 118.85336721 -71.64918592 120.26779264 -73.07418823 121.6795578 C-82.97845517 131.49833437 -92.0628791 141.16049547 -98.2109375 153.8515625 C-98.53126953 154.47289062 -98.85160156 155.09421875 -99.18164062 155.734375 C-105.1151362 167.72270553 -105.3430191 179.28013136 -105.33081055 192.36791992 C-105.33983905 194.33011488 -105.35016892 196.29230421 -105.36169434 198.25448608 C-105.3891626 203.55326758 -105.39853501 208.85194176 -105.40454841 214.15078521 C-105.41395862 219.69881768 -105.44016412 225.24677083 -105.46455383 230.79475403 C-105.50814978 241.288123 -105.53673914 251.78147651 -105.55987722 262.27490836 C-105.58696594 274.22661432 -105.63087517 286.17824021 -105.67616594 298.12988889 C-105.76891332 322.70373662 -105.84063937 347.27760946 -105.8984375 371.8515625 C-108.26089478 372.44554138 -108.26089478 372.44554138 -110.8984375 372.8515625 C-113.09912109 371.34790039 -113.09912109 371.34790039 -115.296875 369.07421875 C-116.51117188 367.83768555 -116.51117188 367.83768555 -117.75 366.57617188 C-118.58273437 365.69767578 -119.41546875 364.81917969 -120.2734375 363.9140625 C-121.0984375 363.07037109 -121.9234375 362.22667969 -122.7734375 361.35742188 C-126.33617738 357.69006186 -129.81787853 353.98554171 -133.125 350.0859375 C-136.38593066 346.30650274 -139.89959423 342.82443846 -143.4609375 339.33203125 C-144.06007965 338.74309586 -144.6592218 338.15416046 -145.27651978 337.54737854 C-147.77564094 335.0935808 -150.27632711 332.64168181 -152.79199219 330.20483398 C-164.33402765 319.00606166 -174.67774671 308.07549903 -175.28611755 291.10922241 C-175.30674004 288.98485464 -175.31132149 286.86028935 -175.30249023 284.73583984 C-175.30935349 283.56704788 -175.31621674 282.39825592 -175.32328796 281.19404602 C-175.34148225 277.35840462 -175.33772989 273.52317498 -175.33203125 269.6875 C-175.33544069 267.68601688 -175.33885891 265.68453357 -175.34338433 263.68305266 C-175.35737918 257.40193811 -175.35590871 251.12095975 -175.34448242 244.83984375 C-175.33298795 238.37878246 -175.34711026 231.91813563 -175.3738789 225.45712888 C-175.39607994 219.88824127 -175.40266395 214.31948337 -175.39680248 208.75055468 C-175.39344434 205.43373888 -175.39749869 202.1172466 -175.41305351 198.800457 C-175.42795684 195.10282378 -175.41729084 191.40610112 -175.40014648 187.70849609 C-175.40981445 186.62152939 -175.41948242 185.53456268 -175.42944336 184.41465759 C-175.32229269 173.35915525 -171.24824146 167.61400489 -163.68554688 159.89697266 C-162.9811422 159.16399271 -162.27673752 158.43101276 -161.55098724 157.6758213 C-159.34530344 155.38919657 -157.12469247 153.11815152 -154.8984375 150.8515625 C-154.21725861 150.15621147 -153.53607971 149.46086044 -152.83425903 148.74443817 C-148.02107811 143.84114648 -143.16697342 138.97952806 -138.3046875 134.125 C-136.77715805 132.5967941 -135.24977683 131.06844003 -133.72253418 129.53994751 C-130.55784962 126.37380602 -127.39140797 123.20943592 -124.22363281 120.04638672 C-120.18131515 116.00980953 -116.1435652 111.96869756 -112.10709381 107.92627525 C-108.96895381 104.78451252 -105.8284249 101.64514644 -102.68717957 98.5064888 C-101.19702476 97.01699624 -99.707599 95.52677392 -98.21894836 94.03577805 C-96.14122469 91.95549458 -94.06028831 89.87847665 -91.97851562 87.80224609 C-91.37786285 87.19956909 -90.77721008 86.59689209 -90.15835571 85.97595215 C-86.46362015 82.29927713 -82.6446507 78.81757336 -78.6925211 75.41880894 C-76.05457328 73.11439329 -73.59201277 70.67490809 -71.11328125 68.19921875 C-70.60849747 67.69539169 -70.10371368 67.19156464 -69.58363342 66.67247009 C-68.52970788 65.61921726 -67.47701251 64.56473205 -66.42553711 63.5090332 C-64.83883804 61.91697284 -63.24686008 60.3303326 -61.65429688 58.74414062 C-60.61947094 57.70865375 -59.58495533 56.67285664 -58.55078125 55.63671875 C-57.17394165 54.25818726 -57.17394165 54.25818726 -55.76928711 52.85180664 C-53.63366523 50.6650152 -51.62210552 48.39774598 -49.62817383 46.08129883 C-45.48463803 41.30652359 -41.04446713 36.85386017 -36.5703125 32.390625 C-35.69949036 31.51884613 -34.82866821 30.64706726 -33.93145752 29.74887085 C-32.10397067 27.9207075 -30.27523644 26.09379031 -28.4453125 24.26806641 C-25.63946351 21.46760575 -22.83903214 18.66180641 -20.0390625 15.85546875 C-18.25813333 14.07519982 -16.47689429 12.29524082 -14.6953125 10.515625 C-13.4390506 9.25632675 -13.4390506 9.25632675 -12.15740967 7.97158813 C-11.37940002 7.19673065 -10.60139038 6.42187317 -9.79980469 5.62353516 C-8.77557404 4.60049789 -8.77557404 4.60049789 -7.73065186 3.55679321 C-3.70511452 -0.1897498 -3.70511452 -0.1897498 0 0 Z " fill="#F5F5F5" transform="translate(554.8984375,277.1484375)"/>
<path d="M0 0 C7.29792763 4.91179833 12.95783442 12.72930604 15.35546875 21.2109375 C17.21669145 32.01267638 16.08947853 41.87558435 10.25 51.21875 C3.25858252 60.8179502 -4.62081921 65.25924427 -16.20703125 67.75 C-25.67683504 69.10678475 -34.26488252 66.14924263 -41.95703125 60.625 C-50.72684553 53.23823887 -55.10695289 44.5368759 -56.51953125 33.25390625 C-57.02696444 23.34310177 -53.49551404 14.21495954 -47.12109375 6.71484375 C-44.07335732 3.586249 -40.91819627 1.04938473 -37.20703125 -1.25 C-36.55347656 -1.66378906 -35.89992188 -2.07757813 -35.2265625 -2.50390625 C-24.07451314 -8.50885591 -10.56507217 -5.98375769 0 0 Z " fill="#F4F4F4" transform="translate(739.20703125,357.25)"/>
<path d="M0 0 C8.48495034 6.95937341 14.92708301 15.48736015 16.05078125 26.6875 C16.34865152 37.22270119 13.6105169 46.27319206 6.71875 54.34765625 C-0.30794125 61.59033186 -8.91349794 66.37491739 -19.1875 66.75 C-30.95902988 66.17076599 -38.97910347 61.96422682 -46.9375 53.5 C-53.87061341 45.2372484 -56.03568771 35.90713563 -55.1875 25.3125 C-53.26190553 15.25998712 -48.23829767 6.68798718 -40.1875 0.3125 C-27.72952515 -7.23247068 -12.38379293 -8.74010001 0 0 Z " fill="#F4F4F5" transform="translate(623.1875,188.6875)"/>
<path d="M0 0 C7.86086383 5.66169359 12.49075647 12.41404682 14.625 21.890625 C15.77019826 30.55200954 13.9572845 38.99281311 8.875 46.140625 C7.82112351 47.41555851 6.73794365 48.66691444 5.625 49.890625 C5.12226562 50.4475 4.61953125 51.004375 4.1015625 51.578125 C-1.71198101 57.24987477 -9.8980147 59.95761861 -17.9375 60.390625 C-26.65949301 59.88591654 -34.09729825 56.29724498 -40.36328125 50.3125 C-46.28595961 43.18228528 -49.76701026 34.71144215 -49.66015625 25.4609375 C-48.69460455 16.75774547 -44.56635103 8.68884381 -38.1875 2.765625 C-26.95503844 -6.20146616 -12.47006586 -7.25161439 0 0 Z " fill="#F4F4F4" transform="translate(648.375,750.109375)"/>
<path d="M0 0 C1.32 0.33 2.64 0.66 4 1 C4 25.75 4 50.5 4 76 C3.67 76 3.34 76 3 76 C2.67 51.91 2.34 27.82 2 3 C1.34 2.67 0.68 2.34 0 2 C0 1.34 0 0.68 0 0 Z " fill="#E2E3E5" transform="translate(338,491)"/>
<path d="M0 0 C0.33 0.66 0.66 1.32 1 2 C-1.70179048 6.61555873 -4.75413355 9.70308949 -8.84375 13.12890625 C-11.78846909 15.68419691 -14.45553124 18.47699463 -17.140625 21.30078125 C-19.00308264 23.00281712 -20.69810382 23.99673994 -23 25 C-21.43717018 21.23396131 -19.0936525 18.86360849 -16.2109375 16.015625 C-15.74765045 15.55516785 -15.2843634 15.09471069 -14.80703735 14.62030029 C-13.33434102 13.15874922 -11.85482597 11.70432832 -10.375 10.25 C-9.37193678 9.25697389 -8.36932743 8.26348911 -7.3671875 7.26953125 C-4.91669165 4.84102059 -2.4600333 2.41885325 0 0 Z " fill="#E2E4E6" transform="translate(530,399)"/>
<path d="M0 0 C2.475 0.495 2.475 0.495 5 1 C1.03627475 5.75085867 -3.09794782 10.23613112 -7.4921875 14.58984375 C-8.08299103 15.17923233 -8.67379456 15.76862091 -9.28250122 16.37586975 C-11.14430404 18.23213727 -13.00957745 20.08487085 -14.875 21.9375 C-16.14867011 23.20614672 -17.42210971 24.4750249 -18.6953125 25.74414062 C-21.79422043 28.83210554 -24.89624301 31.91690929 -28 35 C-28 32 -28 32 -26.89904785 30.5382843 C-26.38386597 30.02976425 -25.86868408 29.5212442 -25.33789062 28.99731445 C-24.46698792 28.12675163 -24.46698792 28.12675163 -23.57849121 27.23860168 C-22.94415161 26.61974594 -22.30981201 26.0008902 -21.65625 25.36328125 C-21.0125647 24.72384079 -20.36887939 24.08440033 -19.70568848 23.42558289 C-17.64404404 21.38075857 -15.57222339 19.34659755 -13.5 17.3125 C-12.10218283 15.92972529 -10.70503847 14.54627009 -9.30859375 13.16210938 C-5.88015899 9.76678817 -2.44256036 6.38099586 1 3 C0.67 2.01 0.34 1.02 0 0 Z " fill="#010812" transform="translate(590,459)"/>
<path d="M0 0 C0 4.07587476 -1.25991672 4.98590839 -4 8 C-5.26328539 9.07146331 -6.53488838 10.13316032 -7.8125 11.1875 C-11.87148625 14.59885579 -14.46432606 18.42483211 -17.1640625 22.9609375 C-19.58802846 25.65308693 -21.46859783 25.73291916 -25 26 C-20.03805145 20.00499003 -14.6523376 14.53572963 -9.125 9.0625 C-8.24585938 8.18787109 -7.36671875 7.31324219 -6.4609375 6.41210938 C-4.3095654 4.27242952 -2.15588208 2.13513403 0 0 Z " fill="#DFE2E3" transform="translate(543,285)"/>
<path d="M0 0 C1.2065625 0.0309375 1.2065625 0.0309375 2.4375 0.0625 C2.1075 2.0425 1.7775 4.0225 1.4375 6.0625 C7.8463807 11.06142695 13.96566603 15.75765036 21.4375 19.0625 C18.4375 20.0625 18.4375 20.0625 15.8359375 18.875 C10.81840909 15.86707599 6.06605379 12.87030239 1.5625 9.125 C-1.36612992 6.73515264 -2.24942996 6.1009472 -6.125 5.625 C-6.929375 5.769375 -7.73375 5.91375 -8.5625 6.0625 C-8.2325 5.4025 -7.9025 4.7425 -7.5625 4.0625 C-5.5825 4.0625 -3.6025 4.0625 -1.5625 4.0625 C-1.5625 3.4025 -1.5625 2.7425 -1.5625 2.0625 C-2.2225 1.7325 -2.8825 1.4025 -3.5625 1.0625 C-2.5625 0.0625 -2.5625 0.0625 0 0 Z " fill="#0C1219" transform="translate(558.5625,271.9375)"/>
<path d="M0 0 C0.99 0.495 0.99 0.495 2 1 C1.67 1.99 1.34 2.98 1 4 C0.67 2.68 0.34 1.36 0 0 Z M-4 2 C-3.01 2.33 -2.02 2.66 -1 3 C-1 3.66 -1 4.32 -1 5 C-0.01 5.33 0.98 5.66 2 6 C1.01 6.99 0.02 7.98 -1 9 C-0.46890625 9.42410156 0.0621875 9.84820313 0.609375 10.28515625 C5.25347229 14.14111294 8.54359694 17.44639308 11 23 C10.67 23.99 10.34 24.98 10 26 C9.48953125 25.03900391 9.48953125 25.03900391 8.96875 24.05859375 C5.82770464 18.4531644 2.69688521 14.56075488 -2.296875 10.5390625 C-4.42271002 8.61800975 -5.32757707 6.7737446 -6 4 C-5.34 4 -4.68 4 -4 4 C-4 3.34 -4 2.68 -4 2 Z " fill="#0A1824" transform="translate(651,741)"/>
<path d="M0 0 C0.66 0.66 1.32 1.32 2 2 C1.828125 3.91015625 1.828125 3.91015625 1.25 6.0625 C1.06953125 6.77535156 0.8890625 7.48820313 0.703125 8.22265625 C0 10 0 10 -2 11 C-2.66 10.67 -3.32 10.34 -4 10 C-4.33 11.65 -4.66 13.3 -5 15 C-7.67927341 10.98108988 -7.15601248 8.75838077 -7 4 C-4.69 2.68 -2.38 1.36 0 0 Z " fill="#0D1E2B" transform="translate(557,677)"/>
<path d="M0 0 C6.18134869 5.10448822 11.79822878 10.68294942 17.4375 16.375 C18.35982422 17.30183594 19.28214844 18.22867188 20.23242188 19.18359375 C22.49058625 21.45345846 24.74636942 23.72563538 27 26 C26.67 26.66 26.34 27.32 26 28 C25.34 28 24.68 28 24 28 C22.65090051 26.01060101 21.32029616 24.00863034 20 22 C18.4576083 20.32606103 16.86690167 18.69553405 15.234375 17.109375 C14.34492188 16.23539063 13.45546875 15.36140625 12.5390625 14.4609375 C11.61867188 13.56632813 10.69828125 12.67171875 9.75 11.75 C7.90696337 9.95773573 6.06817099 8.16109293 4.234375 6.359375 C3.42194336 5.57014648 2.60951172 4.78091797 1.77246094 3.96777344 C0 2 0 2 0 0 Z " fill="#20262D" transform="translate(392,597)"/>
<path d="M0 0 C1.216875 -0.01417969 2.43375 -0.02835938 3.6875 -0.04296875 C6.7719563 0.17163375 8.42673876 0.55991226 11 2.1875 C8.65147472 3.36176264 7.26225935 3.30258173 4.6484375 3.28515625 C3.79765625 3.28193359 2.946875 3.27871094 2.0703125 3.27539062 C1.18085937 3.26701172 0.29140625 3.25863281 -0.625 3.25 C-1.5221875 3.24548828 -2.419375 3.24097656 -3.34375 3.23632812 C-5.56256648 3.22452591 -7.78125018 3.20806155 -10 3.1875 C-10.33 2.5275 -10.66 1.8675 -11 1.1875 C-7.32872046 0.04022514 -3.82958514 0.02028382 0 0 Z " fill="#212F38" transform="translate(603,142.8125)"/>
<path d="M0 0 C0.33 0 0.66 0 1 0 C1 1.65 1 3.3 1 5 C2.32 5.66 3.64 6.32 5 7 C4.67 8.32 4.34 9.64 4 11 C3.34 10.67 2.68 10.34 2 10 C0.89485234 13.31544299 0.67892369 16.20410111 0.4375 19.6875 C0.35371094 20.86699219 0.26992188 22.04648437 0.18359375 23.26171875 C0.12300781 24.16535156 0.06242188 25.06898438 0 26 C-0.33 26 -0.66 26 -1 26 C-1.02892857 22.04168191 -1.04677427 18.08339083 -1.0625 14.125 C-1.07087891 12.99707031 -1.07925781 11.86914062 -1.08789062 10.70703125 C-1.09111328 9.63066406 -1.09433594 8.55429687 -1.09765625 7.4453125 C-1.10289307 6.45031738 -1.10812988 5.45532227 -1.11352539 4.43017578 C-1 2 -1 2 0 0 Z " fill="#08131D" transform="translate(565,762)"/>
<path d="M0 0 C0.99 0.33 1.98 0.66 3 1 C2.48223379 5.10447392 0.35372556 6.95699523 -2.5625 9.75 C-3.80193359 10.94882812 -3.80193359 10.94882812 -5.06640625 12.171875 C-5.70449219 12.77515625 -6.34257812 13.3784375 -7 14 C-7 11 -7 11 -5 9 C-5.32326553 5.40320934 -5.32326553 5.40320934 -6 2 C-4.35 1.67 -2.7 1.34 -1 1 C-0.34 1.99 0.32 2.98 1 4 C0.67 2.68 0.34 1.36 0 0 Z " fill="#0F1E2B" transform="translate(511,539)"/>
<path d="M0 0 C0.33 0 0.66 0 1 0 C1.22523024 3.62415933 1.42731308 7.24924219 1.625 10.875 C1.68945312 11.90753906 1.75390625 12.94007813 1.8203125 14.00390625 C1.871875 14.99003906 1.9234375 15.97617188 1.9765625 16.9921875 C2.02893066 17.90339355 2.08129883 18.81459961 2.13525391 19.75341797 C2 22 2 22 0 24 C-0.66 24.99 -1.32 25.98 -2 27 C-2 24.36 -2 21.72 -2 19 C-2.99 19.33 -3.98 19.66 -5 20 C-4.67 18.35 -4.34 16.7 -4 15 C-3.01 15.33 -2.02 15.66 -1 16 C-0.67 10.72 -0.34 5.44 0 0 Z " fill="#192E3E" transform="translate(676,211)"/>
<path d="M0 0 C0.99 0.33 1.98 0.66 3 1 C3 2.65 3 4.3 3 6 C2.01 6 1.02 6 0 6 C0 4.02 0 2.04 0 0 Z M-2 3 C0.45526625 6.68289937 0.12107287 8.16430641 -0.25 12.5 C-0.33765625 13.6446875 -0.4253125 14.789375 -0.515625 15.96875 C-1 19 -1 19 -3 22 C-2.67 15.73 -2.34 9.46 -2 3 Z " fill="#091521" transform="translate(757,378)"/>
<path d="M0 0 C0 4.07587476 -1.25991672 4.98590839 -4 8 C-5.95648911 9.77749117 -7.95079847 11.50222678 -9.9609375 13.21875 C-12.78265375 15.68369753 -15.38423849 18.31884445 -18 21 C-18.66 20.67 -19.32 20.34 -20 20 C-13.4 13.4 -6.8 6.8 0 0 Z " fill="#040D17" transform="translate(486,285)"/>
<path d="M0 0 C-1.30886976 2.92700833 -2.66226088 4.87184315 -5.0390625 7.015625 C-5.90917969 7.80839844 -5.90917969 7.80839844 -6.796875 8.6171875 C-7.40015625 9.15601563 -8.0034375 9.69484375 -8.625 10.25 C-9.54152344 11.08144531 -9.54152344 11.08144531 -10.4765625 11.9296875 C-11.97956565 13.2917841 -13.4891468 14.64661601 -15 16 C-15.66 15.67 -16.32 15.34 -17 15 C-14.54976242 12.49195282 -12.08852402 9.9949924 -9.625 7.5 C-8.57699219 6.42685547 -8.57699219 6.42685547 -7.5078125 5.33203125 C-6.8375 4.65527344 -6.1671875 3.97851562 -5.4765625 3.28125 C-4.85861816 2.65283203 -4.24067383 2.02441406 -3.60400391 1.37695312 C-2 0 -2 0 0 0 Z " fill="#EDF0F0" transform="translate(592,339)"/>
<path d="M0 0 C0.33 0 0.66 0 1 0 C1.33 8.25 1.66 16.5 2 25 C1.34 25.33 0.68 25.66 0 26 C-1.69908219 22.4019436 -2.04551289 20.76896586 -1 17 C-0.86070644 15.63323368 -0.75634699 14.2625433 -0.68359375 12.890625 C-0.62075195 11.75947266 -0.62075195 11.75947266 -0.55664062 10.60546875 C-0.51732422 9.82816406 -0.47800781 9.05085937 -0.4375 8.25 C-0.39431641 7.45722656 -0.35113281 6.66445313 -0.30664062 5.84765625 C-0.20097009 3.89862185 -0.10002034 1.94933252 0 0 Z " fill="#C2C8CD" transform="translate(563,768)"/>
<path d="M0 0 C0 4.22934252 -1.87307052 5.47689921 -4.6875 8.5625 C-5.99267578 10.01849609 -5.99267578 10.01849609 -7.32421875 11.50390625 C-9.88591719 13.89357823 -11.68751462 14.99133328 -15 16 C-10.30233025 10.33870569 -5.25276628 5.14771096 0 0 Z " fill="#E2E5E7" transform="translate(554,375)"/>
<path d="M0 0 C0.66 0.33 1.32 0.66 2 1 C0 3 0 3 -2 4 C-2 5.65 -2 7.3 -2 9 C-4.31 8.34 -6.62 7.68 -9 7 C-3.51752022 1.21293801 -3.51752022 1.21293801 0 0 Z " fill="#0B1824" transform="translate(567,152)"/>
<path d="M0 0 C0.5775 0.37125 1.155 0.7425 1.75 1.125 C-1.08430453 4.3792015 -2.93607774 5.6456753 -7.25 6.125 C-7.58 5.135 -7.91 4.145 -8.25 3.125 C-3.69 -1.435 -3.69 -1.435 0 0 Z " fill="#0B1C2B" transform="translate(450.25,375.875)"/>
<path d="M0 0 C5.96351455 1.27789598 8.48417174 4.33716394 12 9 C9.73047494 7.91949846 7.97058514 6.97438061 6.0625 5.3125 C4.01567781 3.70634333 4.01567781 3.70634333 1.25 4.3125 C0.5075 4.539375 -0.235 4.76625 -1 5 C-0.67 3.35 -0.34 1.7 0 0 Z " fill="#091624" transform="translate(592,692)"/>
<path d="M0 0 C0.99 0.33 1.98 0.66 3 1 C3.71033431 6.52967941 4.30267176 11.49983036 3 17 C2.67 17 2.34 17 2 17 C1.34 11.39 0.68 5.78 0 0 Z " fill="#E5E8EA" transform="translate(793,365)"/>
<path d="M0 0 C0.33 0.66 0.66 1.32 1 2 C-0.14453125 4.34765625 -0.14453125 4.34765625 -1.8125 7.0625 C-2.35519531 7.96097656 -2.89789062 8.85945312 -3.45703125 9.78515625 C-5 12 -5 12 -7 13 C-6.64987672 7.57308912 -6.64987672 7.57308912 -6 5 C-4.0625 3.6875 -4.0625 3.6875 -2 3 C-1.34 2.01 -0.68 1.02 0 0 Z " fill="#091521" transform="translate(693,807)"/>
<path d="M0 0 C1.2065625 0.0309375 1.2065625 0.0309375 2.4375 0.0625 C1.7775 2.0425 1.1175 4.0225 0.4375 6.0625 C-2.5325 6.0625 -5.5025 6.0625 -8.5625 6.0625 C-8.2325 5.4025 -7.9025 4.7425 -7.5625 4.0625 C-5.5825 4.0625 -3.6025 4.0625 -1.5625 4.0625 C-1.5625 3.4025 -1.5625 2.7425 -1.5625 2.0625 C-2.2225 1.7325 -2.8825 1.4025 -3.5625 1.0625 C-2.5625 0.0625 -2.5625 0.0625 0 0 Z " fill="#0D1B28" transform="translate(558.5625,271.9375)"/>
<path d="M0 0 C0.99 0 1.98 0 3 0 C3 1.32 3 2.64 3 4 C3.99 4.66 4.98 5.32 6 6 C-0.0546875 6.1953125 -0.0546875 6.1953125 -2 6 C-2.66 5.34 -3.32 4.68 -4 4 C-2.68 3.34 -1.36 2.68 0 2 C0 1.34 0 0.68 0 0 Z " fill="#0C1925" transform="translate(618,840)"/>
<path d="M0 0 C1.06863281 0.20367188 2.13726562 0.40734375 3.23828125 0.6171875 C4.04652344 0.78476562 4.85476563 0.95234375 5.6875 1.125 C5.6875 1.455 5.6875 1.785 5.6875 2.125 C2.0575 2.125 -1.5725 2.125 -5.3125 2.125 C-5.6425 2.785 -5.9725 3.445 -6.3125 4.125 C-7.3025 3.465 -8.2925 2.805 -9.3125 2.125 C-9.9725 1.795 -10.6325 1.465 -11.3125 1.125 C-7.14400871 -0.96311252 -4.53403548 -0.89684218 0 0 Z " fill="#1A2D3E" transform="translate(464.3125,797.875)"/>
<path d="M0 0 C3.3 0 6.6 0 10 0 C9.67 0.99 9.34 1.98 9 3 C2.25 3.125 2.25 3.125 0 2 C0 1.34 0 0.68 0 0 Z " fill="#EAEBEC" transform="translate(459,795)"/>
<path d="M0 0 C0.66 0.33 1.32 0.66 2 1 C2 1.99 2 2.98 2 4 C2.66 4.33 3.32 4.66 4 5 C1.69 6.98 -0.62 8.96 -3 11 C-3.66 10.67 -4.32 10.34 -5 10 C-4.360625 9.278125 -3.72125 8.55625 -3.0625 7.8125 C-1.01326465 5.01808816 -0.38667054 3.38336726 0 0 Z " fill="#0A1622" transform="translate(582,294)"/>
<path d="M0 0 C1.1875 1.6875 1.1875 1.6875 2 4 C0.625 6.75 0.625 6.75 -1 9 C-1.66 8.34 -2.32 7.68 -3 7 C-2.67 6.67 -2.34 6.34 -2 6 C-2.66 5.34 -3.32 4.68 -4 4 C-2.68 2.68 -1.36 1.36 0 0 Z " fill="#0B1C29" transform="translate(550,331)"/>
<path d="M0 0 C0 3.99904969 -1.72586967 5.80200422 -4 9 C-5.32 8.67 -6.64 8.34 -8 8 C-5.36 5.36 -2.72 2.72 0 0 Z " fill="#071520" transform="translate(595,539)"/>
<path d="M0 0 C0 0.99 0 1.98 0 3 C-4.455 3.495 -4.455 3.495 -9 4 C-9 3.34 -9 2.68 -9 2 C-5.86501708 0.14223235 -3.62528568 -0.20140476 0 0 Z " fill="#DBDFE0" transform="translate(644,419)"/>
<path d="M0 0 C0.66 0.33 1.32 0.66 2 1 C1.66666667 2.66666667 1.33333333 4.33333333 1 6 C0.896875 6.886875 0.79375 7.77375 0.6875 8.6875 C0 11 0 11 -2.04296875 12.14453125 C-3.01169922 12.56798828 -3.01169922 12.56798828 -4 13 C-3.52140759 11.39566191 -3.04210442 9.79153584 -2.5625 8.1875 C-2.29566406 7.29417969 -2.02882813 6.40085937 -1.75390625 5.48046875 C-1.19612127 3.64526945 -0.60655425 1.81966274 0 0 Z " fill="#E5E8E9" transform="translate(793,406)"/>
<path d="M0 0 C3.36591866 1.44253657 5.51047079 3.33264727 8 6 C7.34 6.66 6.68 7.32 6 8 C4.99403703 7.0479279 3.99538437 6.08812654 3 5.125 C2.443125 4.59132813 1.88625 4.05765625 1.3125 3.5078125 C0 2 0 2 0 0 Z " fill="#27323C" transform="translate(404,661)"/>
<path d="M0 0 C1.32 0.33 2.64 0.66 4 1 C2.25 4.875 2.25 4.875 0 6 C-0.99 5.34 -1.98 4.68 -3 4 C-2.01 2.68 -1.02 1.36 0 0 Z " fill="#1D2D39" transform="translate(478,345)"/>
<path d="M0 0 C2.475 0.99 2.475 0.99 5 2 C3.35 3.98 1.7 5.96 0 8 C-1.09658936 4.71023192 -0.79953138 3.28696233 0 0 Z " fill="#091724" transform="translate(544,277)"/>
<path d="M0 0 C0.99 0.33 1.98 0.66 3 1 C0.36 2.98 -2.28 4.96 -5 7 C-3.38262276 3.76524552 -2.52370777 2.29427979 0 0 Z " fill="#EDF0F1" transform="translate(615,599)"/>
<path d="M0 0 C0.66 0.66 1.32 1.32 2 2 C-1.465 4.97 -1.465 4.97 -5 8 C-5.66 7.67 -6.32 7.34 -7 7 C-4.69 4.69 -2.38 2.38 0 0 Z " fill="#ECEEEE" transform="translate(441,387)"/>
<path d="M0 0 C0.99 0.33 1.98 0.66 3 1 C2.67 2.65 2.34 4.3 2 6 C0.35 5.01 -1.3 4.02 -3 3 C-2.01 2.01 -1.02 1.02 0 0 Z " fill="#192C3A" transform="translate(634,288)"/>
<path d="M0 0 C3.21043882 1.38188453 5.04936365 2.92421903 7.25 5.625 C8.03117188 6.57246094 8.03117188 6.57246094 8.828125 7.5390625 C9.40820312 8.26222656 9.40820312 8.26222656 10 9 C6.06048404 7.15014033 3.21678125 4.92434659 0 2 C0 1.34 0 0.68 0 0 Z " fill="#212830" transform="translate(651,161)"/>
<path d="M0 0 C0.66 0.33 1.32 0.66 2 1 C1.67 3.31 1.34 5.62 1 8 C0.01 8.33 -0.98 8.66 -2 9 C-1.34 6.03 -0.68 3.06 0 0 Z " fill="#ECEEEF" transform="translate(533,793)"/>
<path d="M0 0 C0.66 0.33 1.32 0.66 2 1 C1.67 1.99 1.34 2.98 1 4 C1 4.99 1 5.98 1 7 C0.67 7.66 0.34 8.32 0 9 C-1.32 7.35 -2.64 5.7 -4 4 C-2.68 2.68 -1.36 1.36 0 0 Z " fill="#0B1926" transform="translate(349,741)"/>
<path d="M0 0 C0.99 0.33 1.98 0.66 3 1 C1.02 3.31 -0.96 5.62 -3 8 C-3.66 7.67 -4.32 7.34 -5 7 C-3.47793991 4.37098712 -2.15634036 2.15634036 0 0 Z " fill="#EEF0F0" transform="translate(562,367)"/>
<path d="M0 0 C0.99 0.33 1.98 0.66 3 1 C1.63016497 4.16115776 1.0109362 4.9927092 -2 7 C-2.33 6.01 -2.66 5.02 -3 4 C-2.01 4 -1.02 4 0 4 C-0.33 3.01 -0.66 2.02 -1 1 C-0.67 0.67 -0.34 0.34 0 0 Z " fill="#1F2B35" transform="translate(525,526)"/>
<path d="M0 0 C0.33 0.66 0.66 1.32 1 2 C-1.47812494 5.45167403 -2.79606135 7.23163306 -7 8 C-6.02133662 6.85373678 -5.04205413 5.70800212 -4.0625 4.5625 C-3.51722656 3.92441406 -2.97195313 3.28632813 -2.41015625 2.62890625 C-1.63204305 1.73008851 -0.84063472 0.84063472 0 0 Z " fill="#E7E9EB" transform="translate(547,508)"/>
<path d="M0 0 C1.65 0.33 3.3 0.66 5 1 C3.02 3.31 1.04 5.62 -1 8 C-1.66 7.67 -2.32 7.34 -3 7 C-1.68 5.35 -0.36 3.7 1 2 C0.67 1.34 0.34 0.68 0 0 Z " fill="#05101B" transform="translate(590,459)"/>
<path d="M0 0 C0.99 0.33 1.98 0.66 3 1 C1.35 2.65 -0.3 4.3 -2 6 C-2.33 5.01 -2.66 4.02 -3 3 C-2.01 2.01 -1.02 1.02 0 0 Z " fill="#202E39" transform="translate(389,436)"/>
<path d="M0 0 C0.66 0 1.32 0 2 0 C2 0.66 2 1.32 2 2 C1.34 2 0.68 2 0 2 C0 1.34 0 0.68 0 0 Z M-5 1 C-4.67 1.99 -4.34 2.98 -4 4 C-3.34 4.33 -2.68 4.66 -2 5 C-2.66 5.66 -3.32 6.32 -4 7 C-4.33 5.02 -4.66 3.04 -5 1 Z M-2 1 C-1.34 1.33 -0.68 1.66 0 2 C0 2.66 0 3.32 0 4 C-0.99 3.67 -1.98 3.34 -3 3 C-2.67 2.34 -2.34 1.68 -2 1 Z " fill="#0A1824" transform="translate(571,793)"/>
<path d="M0 0 C5.75 3.625 5.75 3.625 8 7 C4.21388773 6.45912682 2.44599233 4.88277668 0 2 C0 1.34 0 0.68 0 0 Z " fill="#DEE0E2" transform="translate(461,720)"/>
<path d="M0 0 C3.36720387 1.39332574 4.9859524 2.9789286 7 6 C4 6 4 6 1.8125 4.125 C0 2 0 2 0 0 Z " fill="#263139" transform="translate(423,680)"/>
<path d="M0 0 C1.32 0.66 2.64 1.32 4 2 C2.68 2.33 1.36 2.66 0 3 C0 3.99 0 4.98 0 6 C-0.99 6 -1.98 6 -3 6 C-2 3 -2 3 0 0 Z " fill="#1A2D3C" transform="translate(665,779)"/>
<path d="M0 0 C0.66 0 1.32 0 2 0 C3.2890625 1.75 3.2890625 1.75 4.625 4 C5.07101563 4.7425 5.51703125 5.485 5.9765625 6.25 C6.31429687 6.8275 6.65203125 7.405 7 8 C3.68532105 6.46593371 1.96055229 5.13688367 0 2 C0 1.34 0 0.68 0 0 Z " fill="#EBEEEF" transform="translate(245,645)"/>
<path d="M0 0 C0.66 0.99 1.32 1.98 2 3 C0.02 3.99 0.02 3.99 -2 5 C-1.34 3.35 -0.68 1.7 0 0 Z M-3 5 C-2.67 5.66 -2.34 6.32 -2 7 C-2.33 7.66 -2.66 8.32 -3 9 C-3.66 8.67 -4.32 8.34 -5 8 C-4.34 7.01 -3.68 6.02 -3 5 Z " fill="#EBEDEE" transform="translate(281,548)"/>
<path d="M0 0 C0.99 0 1.98 0 3 0 C2.67 2.97 2.34 5.94 2 9 C1.67 9 1.34 9 1 9 C0.67 6.03 0.34 3.06 0 0 Z " fill="#EBEDEE" transform="translate(568,220)"/>
</svg>
